<?xml version="1.0" encoding="UTF-8"?>
<svg width="700pt" height="700pt" version="1.1" viewBox="0 0 700 700" xmlns="http://www.w3.org/2000/svg">
 <path d="m530.5 218.42v183.57c0 9.6758-7.8398 17.5-17.5 17.5h-330.44c-9.6602 0-17.5-7.8242-17.5-17.5v-183.57c0-9.6758 7.8398-17.5 17.5-17.5h62.914c9.6602 0 17.5 7.8242 17.5 17.5s-7.8398 17.5-17.5 17.5h-45.414v148.57h295.44v-148.57h-45.414c-9.6602 0-17.5-7.8242-17.5-17.5s7.8398-17.5 17.5-17.5h62.914c9.6602 0 17.5 7.8242 17.5 17.5zm-214.13-11.797 13.914-16.363v109.66c0 9.6758 7.8398 17.5 17.5 17.5s17.5-7.8242 17.5-17.5v-109.66l13.914 16.363c3.4648 4.0586 8.3828 6.1602 13.336 6.1602 4.0078 0 8.0312-1.3633 11.324-4.1641 7.3672-6.2656 8.2617-17.309 1.9961-24.676l-44.746-52.586c-3.3242-3.9023-8.1914-6.1602-13.336-6.1602s-10.012 2.2578-13.336 6.1602l-44.746 52.586c-6.2656 7.3672-5.3711 18.41 1.9961 24.676 7.3516 6.2656 18.41 5.3711 24.676-1.9766z"/>
</svg>
